# xmcd
#
# Track frame offsets:
#	150
#	17267
#	32968
#	53908
#	70118
#	89221
#	107214
#	124398
#	139067
#	154527
#	171251
#
# Disc length: 2498 seconds
# Revision: 0
# Processed by: cddbd v1.5.2PL0 Copyright (c) Steve Scherf et al.
# Submitted via: dBpowerAMP V12.0
#
DISCID=9709c00b
DTITLE=Eric Durrance - Angels Fly Away
DYEAR=2008
DGENRE=Country
TTITLE0=Someone I Can't Live Without
TTITLE1=All Over But The Crying
TTITLE2=Angles Fly Away
TTITLE3=Cover
TTITLE4=Life is Hard
TTITLE5=What If
TTITLE6=Letting Go
TTITLE7=This Side of Sober
TTITLE8=Turn it Off
TTITLE9=Wait Till I Get There
TTITLE10=It's Gotta Be Love
EXTD=
EXTT0=
EXTT1=
EXTT2=
EXTT3=
EXTT4=
EXTT5=
EXTT6=
EXTT7=
EXTT8=
EXTT9=
EXTT10=
PLAYORDER=
